<svg width="115" height="53" viewBox="0 0 115 53" fill="none" xmlns="http://www.w3.org/2000/svg">
<g clip-path="url(#clip0_2784_3)">
<path d="M114.791 2.65197C114.453 2.07997 113.879 2.05397 113.123 2.54797C95.7117 12.636 76.7362 17.68 56.2489 17.68C42.5907 17.68 29.1149 15.132 15.7956 10.062C15.4567 9.93197 14.9354 9.72397 14.2838 9.43797C13.6321 9.15197 13.163 8.94397 12.8763 8.81397C11.8336 8.39797 10.9995 8.60597 10.4261 9.43797C9.82661 10.27 10.0351 11.024 10.9995 11.726C12.2507 12.636 13.8667 13.676 15.7956 14.846C21.7906 18.382 28.4893 21.138 35.8658 23.088C43.2423 25.038 50.4624 26 57.5 26C68.3692 26 78.6389 24.102 88.3352 20.306C98.0315 16.536 106.711 11.18 114.374 4.31597C114.791 3.97797 115 3.61397 115 3.27597C115 3.06797 114.922 2.85997 114.791 2.65197Z" fill="#E40000"/>
<path d="M21.4256 4.42003C21.2953 4.13403 21.0867 3.87403 20.8 3.58803C19.0537 2.41803 17.3855 1.61203 15.7694 1.19603C13.1108 0.494029 10.5303 0.130029 8.02804 0.0520289C7.32427 -0.0259711 6.67264 0.0260289 6.04707 0.156029C2.91924 0.442029 1.01647 0.962029 0.3909 1.71603C0.104181 2.13203 -0.0261383 2.75603 -0.0261383 3.58803V4.31603C-0.0261383 6.76003 0.625488 9.62003 1.95482 12.922C3.28415 16.224 5.13479 18.876 7.50673 20.904C7.84558 21.19 8.15836 21.32 8.44508 21.32C8.57541 21.32 8.73179 21.294 8.86212 21.216C9.27916 21.008 9.38343 20.618 9.17491 20.072C6.59444 14.014 5.31725 9.82803 5.31725 7.46203C5.31725 6.70803 5.44757 6.13603 5.73428 5.79803C6.43805 4.96603 8.39294 4.55003 11.599 4.55003C12.7719 4.55003 14.1794 4.62803 15.7694 4.75803C17.5158 4.96603 19.1058 5.17403 20.5654 5.38203C20.9825 5.38203 21.2692 5.30403 21.3995 5.17403C21.5299 5.04403 21.582 4.88803 21.5038 4.75803C21.5299 4.65403 21.5038 4.55003 21.4256 4.42003Z" fill="#E40000"/>
</g>
<path d="M18.744 48H16.188V35.994H21.804C23.064 35.994 24.048 36.366 24.756 37.11C25.476 37.842 25.836 38.76 25.836 39.864C25.836 40.956 25.476 41.874 24.756 42.618C24.036 43.362 23.052 43.734 21.804 43.734H18.744V48ZM21.462 41.484C21.978 41.484 22.398 41.34 22.722 41.052C23.058 40.752 23.226 40.356 23.226 39.864C23.226 39.372 23.058 38.982 22.722 38.694C22.398 38.394 21.978 38.244 21.462 38.244H18.744V41.484H21.462ZM29.6524 48H27.3664V39.306H29.6524V40.494C29.9764 40.086 30.3904 39.75 30.8944 39.486C31.3984 39.222 31.9084 39.09 32.4244 39.09V41.322C32.2684 41.286 32.0584 41.268 31.7944 41.268C31.4104 41.268 31.0024 41.364 30.5704 41.556C30.1384 41.748 29.8324 41.982 29.6524 42.258V48ZM37.9388 48.216C36.5948 48.216 35.4848 47.796 34.6088 46.956C33.7328 46.116 33.2948 45.012 33.2948 43.644C33.2948 42.36 33.7148 41.28 34.5548 40.404C35.4068 39.528 36.4868 39.09 37.7948 39.09C39.0908 39.09 40.1408 39.534 40.9448 40.422C41.7488 41.298 42.1508 42.45 42.1508 43.878V44.382H35.6888C35.7608 44.958 36.0188 45.438 36.4628 45.822C36.9068 46.206 37.4828 46.398 38.1908 46.398C38.5748 46.398 38.9888 46.32 39.4328 46.164C39.8888 46.008 40.2488 45.798 40.5128 45.534L41.5208 47.01C40.6448 47.814 39.4508 48.216 37.9388 48.216ZM39.9368 42.834C39.9008 42.342 39.7028 41.898 39.3428 41.502C38.9948 41.106 38.4788 40.908 37.7948 40.908C37.1468 40.908 36.6428 41.106 36.2828 41.502C35.9228 41.886 35.7128 42.33 35.6528 42.834H39.9368ZM46.934 48.216C46.178 48.216 45.452 48.096 44.756 47.856C44.072 47.616 43.502 47.286 43.046 46.866L44.036 45.264C44.372 45.576 44.828 45.852 45.404 46.092C45.98 46.332 46.526 46.452 47.042 46.452C47.522 46.452 47.882 46.368 48.122 46.2C48.374 46.032 48.5 45.804 48.5 45.516C48.5 45.3 48.368 45.126 48.104 44.994C47.852 44.85 47.534 44.748 47.15 44.688C46.778 44.628 46.364 44.538 45.908 44.418C45.464 44.298 45.05 44.154 44.666 43.986C44.294 43.818 43.976 43.554 43.712 43.194C43.46 42.822 43.334 42.366 43.334 41.826C43.334 41.058 43.652 40.41 44.288 39.882C44.924 39.354 45.794 39.09 46.898 39.09C48.242 39.09 49.412 39.486 50.408 40.278L49.49 41.844C49.214 41.556 48.842 41.316 48.374 41.124C47.918 40.932 47.432 40.836 46.916 40.836C46.508 40.836 46.178 40.92 45.926 41.088C45.674 41.244 45.548 41.448 45.548 41.7C45.548 41.892 45.674 42.054 45.926 42.186C46.178 42.306 46.496 42.396 46.88 42.456C47.264 42.516 47.678 42.612 48.122 42.744C48.566 42.864 48.98 43.014 49.364 43.194C49.748 43.362 50.066 43.638 50.318 44.022C50.57 44.406 50.696 44.874 50.696 45.426C50.696 46.242 50.36 46.914 49.688 47.442C49.028 47.958 48.11 48.216 46.934 48.216ZM55.5121 48.216C54.7561 48.216 54.0301 48.096 53.3341 47.856C52.6501 47.616 52.0801 47.286 51.6241 46.866L52.6141 45.264C52.9501 45.576 53.4061 45.852 53.9821 46.092C54.5581 46.332 55.1041 46.452 55.6201 46.452C56.1001 46.452 56.4601 46.368 56.7001 46.2C56.9521 46.032 57.0781 45.804 57.0781 45.516C57.0781 45.3 56.9461 45.126 56.6821 44.994C56.4301 44.85 56.1121 44.748 55.7281 44.688C55.3561 44.628 54.9421 44.538 54.4861 44.418C54.0421 44.298 53.6281 44.154 53.2441 43.986C52.8721 43.818 52.5541 43.554 52.2901 43.194C52.0381 42.822 51.9121 42.366 51.9121 41.826C51.9121 41.058 52.2301 40.41 52.8661 39.882C53.5021 39.354 54.3721 39.09 55.4761 39.09C56.8201 39.09 57.9901 39.486 58.9861 40.278L58.0681 41.844C57.7921 41.556 57.4201 41.316 56.9521 41.124C56.4961 40.932 56.0101 40.836 55.4941 40.836C55.0861 40.836 54.7561 40.92 54.5041 41.088C54.2521 41.244 54.1261 41.448 54.1261 41.7C54.1261 41.892 54.2521 42.054 54.5041 42.186C54.7561 42.306 55.0741 42.396 55.4581 42.456C55.8421 42.516 56.2561 42.612 56.7001 42.744C57.1441 42.864 57.5581 43.014 57.9421 43.194C58.3261 43.362 58.6441 43.638 58.8961 44.022C59.1481 44.406 59.2741 44.874 59.2741 45.426C59.2741 46.242 58.9381 46.914 58.2661 47.442C57.6061 47.958 56.6881 48.216 55.5121 48.216ZM73.7357 48H71.4497V42.708C71.4497 42.132 71.3117 41.724 71.0357 41.484C70.7597 41.244 70.3577 41.124 69.8297 41.124C69.0257 41.124 68.3657 41.466 67.8497 42.15V48H65.5637V35.994H67.8497V40.44C68.1617 40.068 68.5817 39.75 69.1097 39.486C69.6497 39.222 70.2497 39.09 70.9097 39.09C71.8457 39.09 72.5477 39.33 73.0157 39.81C73.4957 40.29 73.7357 40.962 73.7357 41.826V48ZM80.0911 48.216C78.7471 48.216 77.6371 47.796 76.7611 46.956C75.8851 46.116 75.4471 45.012 75.4471 43.644C75.4471 42.36 75.8671 41.28 76.7071 40.404C77.5591 39.528 78.6391 39.09 79.9471 39.09C81.2431 39.09 82.2931 39.534 83.0971 40.422C83.9011 41.298 84.3031 42.45 84.3031 43.878V44.382H77.8411C77.9131 44.958 78.1711 45.438 78.6151 45.822C79.0591 46.206 79.6351 46.398 80.3431 46.398C80.7271 46.398 81.1411 46.32 81.5851 46.164C82.0411 46.008 82.4011 45.798 82.6651 45.534L83.6731 47.01C82.7971 47.814 81.6031 48.216 80.0911 48.216ZM82.0891 42.834C82.0531 42.342 81.8551 41.898 81.4951 41.502C81.1471 41.106 80.6311 40.908 79.9471 40.908C79.2991 40.908 78.7951 41.106 78.4351 41.502C78.0751 41.886 77.8651 42.33 77.8051 42.834H82.0891ZM88.2403 48H85.9543V39.306H88.2403V40.494C88.5643 40.086 88.9783 39.75 89.4823 39.486C89.9863 39.222 90.4963 39.09 91.0123 39.09V41.322C90.8563 41.286 90.6463 41.268 90.3823 41.268C89.9983 41.268 89.5903 41.364 89.1583 41.556C88.7263 41.748 88.4203 41.982 88.2403 42.258V48ZM96.5266 48.216C95.1826 48.216 94.0726 47.796 93.1966 46.956C92.3206 46.116 91.8826 45.012 91.8826 43.644C91.8826 42.36 92.3026 41.28 93.1426 40.404C93.9946 39.528 95.0746 39.09 96.3826 39.09C97.6786 39.09 98.7286 39.534 99.5326 40.422C100.337 41.298 100.739 42.45 100.739 43.878V44.382H94.2766C94.3486 44.958 94.6066 45.438 95.0506 45.822C95.4946 46.206 96.0706 46.398 96.7786 46.398C97.1626 46.398 97.5766 46.32 98.0206 46.164C98.4766 46.008 98.8366 45.798 99.1006 45.534L100.109 47.01C99.2326 47.814 98.0386 48.216 96.5266 48.216ZM98.5246 42.834C98.4886 42.342 98.2906 41.898 97.9306 41.502C97.5826 41.106 97.0666 40.908 96.3826 40.908C95.7346 40.908 95.2306 41.106 94.8706 41.502C94.5106 41.886 94.3006 42.33 94.2406 42.834H98.5246Z" fill="#FF0000"/>
<defs>
<clipPath id="clip0_2784_3">
<rect width="115" height="26" fill="white" transform="matrix(-1 0 0 1 115 0)"/>
</clipPath>
</defs>
</svg>
