<svg width="170" height="65" viewBox="0 0 170 65" fill="none" xmlns="http://www.w3.org/2000/svg">
<g clip-path="url(#clip0_2782_2)">
<path d="M0.937526 31.1132C1.27846 30.2082 2.08354 30.0344 3.27273 30.5667C30.3523 40.9674 58.4232 43.7263 87.4117 38.8556C106.737 35.6085 125.188 28.7322 142.806 18.2581C143.254 17.9902 143.941 17.5664 144.794 16.9993C145.647 16.4322 146.26 16.0208 146.635 15.7653C148.009 14.9178 149.24 15.0193 150.253 16.0822C151.302 17.1388 151.19 18.2752 149.995 19.5163C148.445 21.1253 146.411 23.0085 143.965 25.1535C136.338 31.6753 127.527 37.2402 117.562 41.8045C107.597 46.3687 97.6142 49.4718 87.6563 51.145C72.2769 53.729 57.2862 53.4349 42.6471 50.2688C28.0144 47.1402 14.4359 41.4839 1.9306 33.4124C1.25865 33.0244 0.875449 32.5494 0.793594 32.0622C0.743222 31.7624 0.803493 31.444 0.937526 31.1132Z" fill="#E40000"/>
<path d="M133.473 11.4646C133.589 11.0214 133.821 10.597 134.157 10.1166C136.345 8.0151 138.51 6.45679 140.696 5.47299C144.288 3.8291 147.851 2.69098 151.372 1.98366C152.349 1.70392 153.284 1.62395 154.201 1.6626C158.696 1.33121 161.514 1.62834 162.582 2.56638C163.088 3.09781 163.424 3.96622 163.625 5.16541L163.801 6.2147C164.393 9.73733 164.164 14.0145 163.083 19.0898C162.001 24.1651 160.025 28.4275 157.16 31.9144C156.75 32.4072 156.339 32.669 155.933 32.7371C155.749 32.7681 155.521 32.7678 155.318 32.6864C154.677 32.4857 154.435 31.9484 154.598 31.1118C156.782 21.7668 157.576 15.4297 157.003 12.0195C156.82 10.9327 156.497 10.1393 156.01 9.72025C154.812 8.68837 151.945 8.55354 147.409 9.31574C145.749 9.5946 143.777 10.0416 141.559 10.607C139.138 11.322 136.938 11.9998 134.924 12.6466C134.333 12.7458 133.909 12.7015 133.693 12.5451C133.477 12.3887 133.366 12.1763 133.445 11.9703C133.383 11.8266 133.394 11.6705 133.473 11.4646Z" fill="#E40000"/>
</g>
<path d="M37.744 26H35.188V13.994H40.804C42.064 13.994 43.048 14.366 43.756 15.11C44.476 15.842 44.836 16.76 44.836 17.864C44.836 18.956 44.476 19.874 43.756 20.618C43.036 21.362 42.052 21.734 40.804 21.734H37.744V26ZM40.462 19.484C40.978 19.484 41.398 19.34 41.722 19.052C42.058 18.752 42.226 18.356 42.226 17.864C42.226 17.372 42.058 16.982 41.722 16.694C41.398 16.394 40.978 16.244 40.462 16.244H37.744V19.484H40.462ZM48.6524 26H46.3664V17.306H48.6524V18.494C48.9764 18.086 49.3904 17.75 49.8944 17.486C50.3984 17.222 50.9084 17.09 51.4244 17.09V19.322C51.2684 19.286 51.0584 19.268 50.7944 19.268C50.4104 19.268 50.0024 19.364 49.5704 19.556C49.1384 19.748 48.8324 19.982 48.6524 20.258V26ZM56.9388 26.216C55.5948 26.216 54.4848 25.796 53.6088 24.956C52.7328 24.116 52.2948 23.012 52.2948 21.644C52.2948 20.36 52.7148 19.28 53.5548 18.404C54.4068 17.528 55.4868 17.09 56.7948 17.09C58.0908 17.09 59.1408 17.534 59.9448 18.422C60.7488 19.298 61.1508 20.45 61.1508 21.878V22.382H54.6888C54.7608 22.958 55.0188 23.438 55.4628 23.822C55.9068 24.206 56.4828 24.398 57.1908 24.398C57.5748 24.398 57.9888 24.32 58.4328 24.164C58.8888 24.008 59.2488 23.798 59.5128 23.534L60.5208 25.01C59.6448 25.814 58.4508 26.216 56.9388 26.216ZM58.9368 20.834C58.9008 20.342 58.7028 19.898 58.3428 19.502C57.9948 19.106 57.4788 18.908 56.7948 18.908C56.1468 18.908 55.6428 19.106 55.2828 19.502C54.9228 19.886 54.7128 20.33 54.6528 20.834H58.9368ZM65.934 26.216C65.178 26.216 64.452 26.096 63.756 25.856C63.072 25.616 62.502 25.286 62.046 24.866L63.036 23.264C63.372 23.576 63.828 23.852 64.404 24.092C64.98 24.332 65.526 24.452 66.042 24.452C66.522 24.452 66.882 24.368 67.122 24.2C67.374 24.032 67.5 23.804 67.5 23.516C67.5 23.3 67.368 23.126 67.104 22.994C66.852 22.85 66.534 22.748 66.15 22.688C65.778 22.628 65.364 22.538 64.908 22.418C64.464 22.298 64.05 22.154 63.666 21.986C63.294 21.818 62.976 21.554 62.712 21.194C62.46 20.822 62.334 20.366 62.334 19.826C62.334 19.058 62.652 18.41 63.288 17.882C63.924 17.354 64.794 17.09 65.898 17.09C67.242 17.09 68.412 17.486 69.408 18.278L68.49 19.844C68.214 19.556 67.842 19.316 67.374 19.124C66.918 18.932 66.432 18.836 65.916 18.836C65.508 18.836 65.178 18.92 64.926 19.088C64.674 19.244 64.548 19.448 64.548 19.7C64.548 19.892 64.674 20.054 64.926 20.186C65.178 20.306 65.496 20.396 65.88 20.456C66.264 20.516 66.678 20.612 67.122 20.744C67.566 20.864 67.98 21.014 68.364 21.194C68.748 21.362 69.066 21.638 69.318 22.022C69.57 22.406 69.696 22.874 69.696 23.426C69.696 24.242 69.36 24.914 68.688 25.442C68.028 25.958 67.11 26.216 65.934 26.216ZM74.5121 26.216C73.7561 26.216 73.0301 26.096 72.3341 25.856C71.6501 25.616 71.0801 25.286 70.6241 24.866L71.6141 23.264C71.9501 23.576 72.4061 23.852 72.9821 24.092C73.5581 24.332 74.1041 24.452 74.6201 24.452C75.1001 24.452 75.4601 24.368 75.7001 24.2C75.9521 24.032 76.0781 23.804 76.0781 23.516C76.0781 23.3 75.9461 23.126 75.6821 22.994C75.4301 22.85 75.1121 22.748 74.7281 22.688C74.3561 22.628 73.9421 22.538 73.4861 22.418C73.0421 22.298 72.6281 22.154 72.2441 21.986C71.8721 21.818 71.5541 21.554 71.2901 21.194C71.0381 20.822 70.9121 20.366 70.9121 19.826C70.9121 19.058 71.2301 18.41 71.8661 17.882C72.5021 17.354 73.3721 17.09 74.4761 17.09C75.8201 17.09 76.9901 17.486 77.9861 18.278L77.0681 19.844C76.7921 19.556 76.4201 19.316 75.9521 19.124C75.4961 18.932 75.0101 18.836 74.4941 18.836C74.0861 18.836 73.7561 18.92 73.5041 19.088C73.2521 19.244 73.1261 19.448 73.1261 19.7C73.1261 19.892 73.2521 20.054 73.5041 20.186C73.7561 20.306 74.0741 20.396 74.4581 20.456C74.8421 20.516 75.2561 20.612 75.7001 20.744C76.1441 20.864 76.5581 21.014 76.9421 21.194C77.3261 21.362 77.6441 21.638 77.8961 22.022C78.1481 22.406 78.2741 22.874 78.2741 23.426C78.2741 24.242 77.9381 24.914 77.2661 25.442C76.6061 25.958 75.6881 26.216 74.5121 26.216ZM92.7357 26H90.4497V20.708C90.4497 20.132 90.3117 19.724 90.0357 19.484C89.7597 19.244 89.3577 19.124 88.8297 19.124C88.0257 19.124 87.3657 19.466 86.8497 20.15V26H84.5637V13.994H86.8497V18.44C87.1617 18.068 87.5817 17.75 88.1097 17.486C88.6497 17.222 89.2497 17.09 89.9097 17.09C90.8457 17.09 91.5477 17.33 92.0157 17.81C92.4957 18.29 92.7357 18.962 92.7357 19.826V26ZM99.0911 26.216C97.7471 26.216 96.6371 25.796 95.7611 24.956C94.8851 24.116 94.4471 23.012 94.4471 21.644C94.4471 20.36 94.8671 19.28 95.7071 18.404C96.5591 17.528 97.6391 17.09 98.9471 17.09C100.243 17.09 101.293 17.534 102.097 18.422C102.901 19.298 103.303 20.45 103.303 21.878V22.382H96.8411C96.9131 22.958 97.1711 23.438 97.6151 23.822C98.0591 24.206 98.6351 24.398 99.3431 24.398C99.7271 24.398 100.141 24.32 100.585 24.164C101.041 24.008 101.401 23.798 101.665 23.534L102.673 25.01C101.797 25.814 100.603 26.216 99.0911 26.216ZM101.089 20.834C101.053 20.342 100.855 19.898 100.495 19.502C100.147 19.106 99.6311 18.908 98.9471 18.908C98.2991 18.908 97.7951 19.106 97.4351 19.502C97.0751 19.886 96.8651 20.33 96.8051 20.834H101.089ZM107.24 26H104.954V17.306H107.24V18.494C107.564 18.086 107.978 17.75 108.482 17.486C108.986 17.222 109.496 17.09 110.012 17.09V19.322C109.856 19.286 109.646 19.268 109.382 19.268C108.998 19.268 108.59 19.364 108.158 19.556C107.726 19.748 107.42 19.982 107.24 20.258V26ZM115.527 26.216C114.183 26.216 113.073 25.796 112.197 24.956C111.321 24.116 110.883 23.012 110.883 21.644C110.883 20.36 111.303 19.28 112.143 18.404C112.995 17.528 114.075 17.09 115.383 17.09C116.679 17.09 117.729 17.534 118.533 18.422C119.337 19.298 119.739 20.45 119.739 21.878V22.382H113.277C113.349 22.958 113.607 23.438 114.051 23.822C114.495 24.206 115.071 24.398 115.779 24.398C116.163 24.398 116.577 24.32 117.021 24.164C117.477 24.008 117.837 23.798 118.101 23.534L119.109 25.01C118.233 25.814 117.039 26.216 115.527 26.216ZM117.525 20.834C117.489 20.342 117.291 19.898 116.931 19.502C116.583 19.106 116.067 18.908 115.383 18.908C114.735 18.908 114.231 19.106 113.871 19.502C113.511 19.886 113.301 20.33 113.241 20.834H117.525Z" fill="#E40000"/>
<defs>
<clipPath id="clip0_2782_2">
<rect width="165" height="38" fill="white" transform="translate(0 27.3403) rotate(-9.5378)"/>
</clipPath>
</defs>
</svg>
